<?xml version="1.0" standalone="no"?>
<!DOCTYPE svg PUBLIC "-//W3C//DTD SVG 20010904//EN"
 "http://www.w3.org/TR/2001/REC-SVG-20010904/DTD/svg10.dtd">
<svg version="1.0" xmlns="http://www.w3.org/2000/svg"
 width="1119.000000pt" height="1280.000000pt" viewBox="0 0 1119.000000 1280.000000"
 preserveAspectRatio="xMidYMid meet">
<metadata>
Created by potrace 1.15, written by Peter Selinger 2001-2017
</metadata>
<g transform="translate(0.000000,1280.000000) scale(0.100000,-0.100000)"
fill="#000000" stroke="none">
<path d="M1588 12770 c-21 -5 -65 -21 -98 -35 -32 -14 -66 -25 -74 -25 -9 0
-55 -13 -103 -29 -49 -16 -104 -32 -123 -35 -20 -3 -78 -34 -130 -67 -52 -34
-115 -72 -139 -84 -32 -17 -50 -35 -65 -66 -12 -24 -35 -53 -53 -64 -18 -11
-47 -29 -65 -40 -42 -26 -110 -129 -150 -226 -30 -74 -33 -77 -83 -98 -61 -25
-108 -72 -124 -123 -7 -21 -11 -87 -10 -155 l2 -118 -70 -40 c-199 -115 -271
-202 -281 -337 -3 -39 -1 -68 5 -68 5 0 51 9 103 21 148 32 267 49 361 49 l86
0 5 -93 c6 -116 37 -193 92 -229 33 -21 36 -27 36 -70 0 -137 90 -198 271
-185 57 4 94 0 145 -14 81 -22 134 -23 189 -4 21 8 40 13 41 12 1 -1 -15 -70
-37 -152 -317 -1209 -407 -1622 -468 -2155 -36 -312 -43 -449 -40 -715 8 -566
3 -874 -20 -1179 -19 -253 -20 -316 -11 -410 30 -304 130 -513 382 -799 388
-440 513 -564 737 -732 249 -188 474 -303 675 -345 227 -47 399 -138 941 -500
361 -242 390 -271 476 -487 104 -262 178 -343 554 -598 87 -60 189 -134 225
-164 36 -30 67 -56 68 -57 7 -5 -50 -218 -95 -359 -87 -271 -264 -718 -358
-905 -27 -54 -43 -73 -68 -83 -54 -23 -145 -37 -302 -46 -168 -10 -202 -20
-316 -86 -41 -25 -81 -45 -87 -45 -28 0 -96 -92 -116 -158 -7 -21 -6 -22 34
-16 23 4 80 1 128 -5 48 -7 156 -16 241 -19 l154 -7 -154 -102 c-85 -56 -163
-111 -173 -122 -26 -29 -30 -95 -12 -174 9 -38 16 -95 16 -128 l0 -60 45 31
c24 17 66 41 92 55 26 13 99 67 162 120 63 52 139 107 168 121 49 24 61 26
146 21 70 -3 107 -11 156 -31 73 -31 106 -28 123 10 9 20 8 34 -5 72 -37 103
-15 192 78 319 123 168 272 534 540 1331 l122 363 129 87 c159 108 187 135
298 295 115 166 130 177 249 189 91 8 541 75 564 83 8 2 13 -29 17 -103 16
-270 28 -432 37 -488 5 -34 39 -165 75 -290 42 -150 67 -255 71 -305 5 -72 4
-80 -27 -137 -17 -33 -71 -105 -120 -159 l-87 -99 -104 -38 c-215 -79 -328
-177 -367 -320 l-11 -38 32 5 c18 3 102 22 187 41 183 41 451 91 568 105 81
10 241 67 425 150 81 37 109 38 202 10 61 -18 85 -33 170 -105 171 -145 165
-159 59 134 -109 299 -109 299 -284 392 -144 77 -221 130 -247 168 -26 40 -78
250 -132 542 -40 211 -111 624 -108 626 1 1 74 45 162 99 310 189 494 319 670
471 266 230 380 321 515 409 69 45 143 102 166 126 94 102 184 268 223 406 31
114 66 169 177 279 56 56 107 111 113 123 24 45 33 126 40 391 6 214 11 283
23 310 31 71 119 172 398 455 157 160 302 315 321 345 104 158 142 286 159
529 20 289 46 345 237 512 28 26 51 93 68 208 12 79 20 100 48 137 45 57 130
128 203 168 46 25 67 45 92 87 29 46 33 61 29 104 -2 28 -16 79 -31 115 -44
104 -46 97 24 105 58 7 62 9 87 49 14 22 39 56 56 74 27 27 32 41 35 95 3 54
1 66 -22 97 -40 54 -53 89 -70 181 -31 178 -32 171 24 236 28 32 53 69 57 82
5 22 -6 92 -23 135 -7 18 -2 18 102 11 122 -8 161 -25 238 -104 31 -32 43 -38
57 -30 38 20 52 149 24 217 -10 24 -92 113 -230 252 l-214 215 -16 65 c-8 36
-15 93 -15 128 0 62 -1 64 -51 118 -29 30 -72 68 -97 84 -40 26 -54 30 -116
30 -50 0 -92 -8 -141 -25 -38 -14 -71 -25 -73 -25 -2 0 -3 28 -2 63 1 34 1 70
1 80 -1 9 -34 52 -75 95 -96 101 -101 111 -79 157 32 67 -20 100 -196 125
l-115 16 -37 60 -36 59 -55 -1 -54 -1 -32 58 c-37 67 -69 88 -146 96 -49 5
-60 1 -206 -72 -200 -100 -309 -166 -362 -219 -75 -75 -329 -518 -563 -981
-118 -233 -143 -275 -244 -408 -120 -157 -162 -196 -294 -275 -189 -113 -251
-141 -378 -172 -515 -124 -2324 -370 -2724 -370 -90 0 -185 32 -344 115 -303
160 -588 398 -673 561 -59 112 -125 353 -238 859 -28 127 -76 330 -105 453
-125 513 -193 630 -575 987 -100 94 -203 185 -229 204 -80 58 -178 98 -282
114 -57 9 -117 26 -145 40 -53 27 -194 124 -194 133 0 3 20 28 44 56 59 64 90
145 83 215 -10 100 -77 202 -161 245 -46 23 -142 32 -198 18z"/>
</g>
</svg>
